<?xml version="1.0" standalone="no"?>
<!DOCTYPE svg PUBLIC "-//W3C//DTD SVG 20010904//EN"
 "http://www.w3.org/TR/2001/REC-SVG-20010904/DTD/svg10.dtd">
<svg version="1.0" xmlns="http://www.w3.org/2000/svg"
 width="800.000000pt" height="800.000000pt" viewBox="0 0 800.000000 800.000000"
 preserveAspectRatio="xMidYMid meet">
<metadata>
Created by potrace 1.11, written by Peter Selinger 2001-2013
</metadata>
<g transform="translate(0.000000,800.000000) scale(0.100000,-0.100000)"
fill="#000000" stroke="none">
<path d="M0 4000 l0 -4000 4000 0 4000 0 0 4000 0 4000 -4000 0 -4000 0 0
-4000z m6765 2615 l25 -24 0 -2506 0 -2505 -470 0 -470 0 0 2505 0 2506 25 24
24 25 421 0 421 0 24 -25z m-2130 -1010 l25 -24 0 -2001 0 -2000 -470 0 -470
0 0 1245 c0 1168 1 1248 18 1278 24 45 24 228 -1 274 -16 29 -17 81 -17 607
l0 576 73 34 72 34 373 1 373 1 24 -25z m-1763 -1375 c18 -103 119 -255 197
-295 104 -52 193 -75 295 -75 88 0 99 2 160 34 l66 35 0 -1175 0 -1174 -465 0
-465 0 0 1330 c0 1547 -16 1373 123 1368 l81 -3 8 -45z m672 28 c9 -37 7 -124
-5 -155 -37 -98 -191 -143 -300 -88 -94 48 -130 98 -147 208 l-9 57 227 0
c228 0 228 0 234 -22z m2125 -319 c17 -6 36 -19 41 -29 6 -12 10 -440 10
-1174 l0 -1156 -465 0 -465 0 0 1154 c0 635 3 1162 6 1171 16 41 52 44 455 45
257 0 397 -4 418 -11z m-3168 -688 l24 -19 3 -826 2 -826 -470 0 -470 0 2 826
3 826 24 19 c22 18 45 19 441 19 396 0 419 -1 441 -19z"/>
</g>
</svg>
